<?xml version="1.0" encoding="iso-8859-1"?>
<!-- Generator: Adobe Illustrator 16.0.0, SVG Export Plug-In . SVG Version: 6.00 Build 0)  -->
<!DOCTYPE svg PUBLIC "-//W3C//DTD SVG 1.1//EN" "http://www.w3.org/Graphics/SVG/1.1/DTD/svg11.dtd">
<svg version="1.1" id="Capa_1" xmlns="http://www.w3.org/2000/svg" xmlns:xlink="http://www.w3.org/1999/xlink" x="0px" y="0px"
	 width="121.8px" height="121.8px" viewBox="0 0 121.8 121.8" style="enable-background:new 0 0 121.8 121.8;" xml:space="preserve"
	>
<g>
	<path style="fill:#424748" d="M0,41.65c0,12.3,10.1,22.2,22.3,22.2c1.1,0,2.4-0.101,3.4-0.3v45.4c0,3.299,2.4,5.699,5.8,5.699H90
		c3.3,0,5.8-2.4,5.8-5.699v-16.9l15.899,15.1c3.801,3.6,10.101,0.9,10.101-4.3v-46.2c0-5.3-6.3-8-10.101-4.3L95.8,67.451V50.55
		c0-3.3-2.5-5.8-5.8-5.8H76.199c3.701-4,6-9.4,6-15.3c0-12.3-10-22.3-22.199-22.3c-11.1,0-20.3,8.2-22,18.9l0,0
		c-4-4.1-9.6-6.6-15.8-6.6C10,19.45,0,29.35,0,41.65z M60,21.15c4.5,0,8.199,3.7,8.199,8.2S64.5,37.55,60,37.55s-8.2-3.6-8.2-8.2
		S55.5,21.15,60,21.15z M46.8,72.75c0-3.899,3.2-7,7-7h13c3.899,0,7,3.201,7,7v13c0,3.9-3.2,7-7,7h-13c-3.9,0-7-3.199-7-7V72.75z
		 M30.5,41.55c0,1.1-0.2,2.2-0.6,3.2l0,0c-0.8,2-2,3.4-4,4.3l0,0c-1,0.5-2.3,0.8-3.5,0.8c-4.5,0-8.2-3.7-8.2-8.2s3.7-8.2,8.2-8.2
		C26.8,33.45,30.5,37.05,30.5,41.55z"/>
</g>
<g>
</g>
<g>
</g>
<g>
</g>
<g>
</g>
<g>
</g>
<g>
</g>
<g>
</g>
<g>
</g>
<g>
</g>
<g>
</g>
<g>
</g>
<g>
</g>
<g>
</g>
<g>
</g>
<g>
</g>
</svg>
